# xmcd
#
# Track frame offsets:
#	150
#	13525
#	33259
#	45288
#	59345
#	68776
#	88615
#	108462
#	126813
#	144900
#	170075
#
# Disc length: 2501 seconds
#
# Revision: 1
# Processed by: cddbd v1.5.2PL0 Copyright (c) Steve Scherf et al.
# Submitted via: audiograbber 1.83.01
#
DISCID=8b09c30b
DTITLE=Reggie and Ladye Love Smith - Twenty-Four Hours a Day
DYEAR=2001
DGENRE=Gospel
TTITLE0=Twenty-Four Hours A Day
TTITLE1=Then The Hammer Fell
TTITLE2=Transformation
TTITLE3=Going Home
TTITLE4=There Is Power In The Blood
TTITLE5=I Still Believe in America
TTITLE6=My Redeemer
TTITLE7=Pray, Pray, Pray
TTITLE8=Blessed To Me
TTITLE9=I've Just Seen Jesus
TTITLE10=God Knows
EXTD=
EXTT0=
EXTT1=
EXTT2=
EXTT3=
EXTT4=
EXTT5=
EXTT6=
EXTT7=
EXTT8=
EXTT9=
EXTT10=
PLAYORDER=
